<svg xmlns="http://www.w3.org/2000/svg" width="3200" height="1792" viewBox="0 0 3200 1792"><g id="others"><path id="162" d="M 2289.053,842.564 C 2287.119,840.234 2282.358,839.675 2278.944,841.378 C 2276.108,842.793 2275.896,842.780 2276.198,841.206 C 2276.490,839.685 2278.503,839.470 2294.836,839.227 C 2307.127,839.044 2312.938,839.290 2312.514,839.977 C 2312.166,840.540 2310.163,841 2308.063,841 C 2305.889,841 2303.709,841.646 2303,842.500 C 2301.319,844.525 2290.721,844.574 2289.053,842.564" stroke="#102F45" fill="#102F45" stroke-width="1" />
  <path id="167" d="M 1281,1021.334 C 1273.429,1020.142 1262.542,1017.563 1255.500,1015.294 C 1246.415,1012.367 1233.039,1005.956 1231.072,1003.586 C 1230.348,1002.713 1229.346,1002 1228.847,1002 C 1228.348,1002 1225.022,999.525 1221.456,996.500 C 1217.716,993.327 1214.006,991 1212.687,991 C 1210.002,991 1208,989.272 1208,986.955 C 1208,986.050 1207.100,984.495 1206,983.500 C 1202.606,980.428 1204.007,972.709 1208.251,971.095 C 1209.509,970.617 1215.615,964.550 1221.820,957.613 C 1229.944,948.531 1233.733,945 1235.356,945 C 1236.747,945 1239.398,946.866 1242.282,949.875 C 1244.852,952.556 1251.015,957.531 1255.977,960.930 C 1260.940,964.329 1265,967.319 1265,967.575 C 1265,968.440 1256.528,963.755 1252.500,960.663 C 1250.300,958.974 1245.420,954.899 1241.655,951.609 C 1241.655,951.609 1234.811,945.626 1234.811,945.626 C 1234.811,945.626 1229.655,951.561 1229.655,951.561 C 1226.820,954.825 1220.019,962.402 1214.541,968.398 C 1214.541,968.398 1204.581,979.299 1204.581,979.299 C 1204.581,979.299 1213.218,987.538 1213.218,987.538 C 1232.542,1005.971 1257.593,1017.807 1281.250,1019.682 C 1285.512,1020.020 1289,1020.680 1289,1021.148 C 1289,1021.999 1285.712,1022.076 1281,1021.334" stroke="#E6F0F2" fill="#E6F0F2" stroke-width="1" />
  <path id="138" d="M 1991,804.140 C 1991,803.052 1991.756,800.846 1992.679,799.237 C 1994.252,796.496 1994.251,795.812 1992.658,788.406 C 1990.862,780.056 1990.219,776.922 1990.083,775.840 C 1990.037,775.477 1988.260,772.978 1986.133,770.288 C 1981.486,764.410 1977.775,763.103 1967,763.551 C 1959.945,763.845 1959.678,763.781 1962.500,762.477 C 1974.311,757.018 1992.526,766.681 1996.556,780.544 C 1998.594,787.553 1998.058,795.007 1995.100,800.805 C 1992.672,805.565 1991,806.924 1991,804.140" stroke="#182A34" fill="#182A34" stroke-width="1" />
  <path id="164" d="M 1874.334,841.573 C 1874.700,840.618 1875,839.648 1875,839.418 C 1875,839.188 1877.958,839 1881.573,839 C 1887.294,839 1888.103,839.227 1887.813,840.750 C 1887.346,843.200 1882.935,843.631 1881.294,841.387 C 1880.025,839.652 1879.856,839.654 1876.821,841.447 C 1873.913,843.165 1873.720,843.174 1874.334,841.573" stroke="#123046" fill="#123046" stroke-width="1" />
  <path id="164" d="M 1313.522,778.552 C 1309.665,777.725 1306.472,777.581 1304.522,778.147 C 1301.386,779.057 1290.991,778.308 1287.500,776.921 C 1284.496,775.728 1309.445,775.844 1316.929,777.058 C 1324.708,778.320 1328.241,779.966 1323,779.886 C 1321.075,779.857 1316.810,779.256 1313.522,778.552" stroke="#123046" fill="#123046" stroke-width="1" />
  <path id="4" d="M 851.694,982.361 C 850.561,981.228 852.050,980 854.559,980 C 856.062,980 857,980.576 857,981.500 C 857,982.997 852.982,983.649 851.694,982.361" stroke="#F9F4FC" fill="#F9F4FC" stroke-width="1" />
  <path id="164" d="M 1947.624,803.342 C 1944.913,799.218 1942.980,792.357 1943.161,787.500 C 1943.248,785.166 1943.369,785 1943.706,786.752 C 1943.945,787.991 1945.011,789.470 1946.076,790.040 C 1947.640,790.877 1947.903,791.789 1947.448,794.788 C 1947.047,797.432 1947.473,799.631 1948.928,802.432 C 1951.625,807.625 1950.813,808.192 1947.624,803.342" stroke="#123046" fill="#123046" stroke-width="1" />
  </g><g id="logo 2"><path id="164" d="M 2088.500,762 C 2089.600,761.527 2091.625,761.116 2093,761.086 C 2094.970,761.043 2095.182,761.236 2094,762 C 2093.175,762.533 2091.150,762.944 2089.500,762.914 C 2086.924,762.867 2086.783,762.738 2088.500,762" stroke="#123046" fill="#123046" stroke-width="1" />
  </g><g id="text"><path id="164" d="M 1959,813.384 C 1959,813.384 1953.500,810.788 1953.500,810.788 C 1953.500,810.788 1956.728,809.223 1956.728,809.223 C 1960.741,807.277 1963.717,808.415 1966.307,812.883 C 1968.049,815.889 1968.049,815.999 1966.307,815.990 C 1965.313,815.985 1962.025,814.812 1959,813.384" stroke="#123046" fill="#123046" stroke-width="1" />
  <path id="164" d="M 1974,815.023 C 1974,813.370 1978.283,811.260 1982.750,810.712 C 1985.088,810.425 1987,810.365 1987,810.578 C 1987,811.305 1977.072,816 1975.533,816 C 1974.690,816 1974,815.560 1974,815.023" stroke="#123046" fill="#123046" stroke-width="1" />
  <path id="4" d="M 875.446,960.913 C 874.415,959.246 876.733,957.333 878.113,958.713 C 879.267,959.867 878.545,962 877,962 C 876.515,962 875.816,961.511 875.446,960.913" stroke="#F9F4FC" fill="#F9F4FC" stroke-width="1" />
  <path id="138" d="M 2133.728,770.069 C 2133.395,768.796 2131.736,767.748 2128.862,766.996 C 2120.365,764.773 2112.423,761.553 2114.456,761.156 C 2116.809,760.696 2126.055,762.663 2131.250,764.727 C 2134.375,765.969 2135,766.699 2135,769.109 C 2135,772.445 2134.457,772.855 2133.728,770.069" stroke="#182A34" fill="#182A34" stroke-width="1" />
</g><g id="logo 1"><path id="162" d="M 1818.500,1017.875 C 1812.875,1016.341 1806.078,1012.521 1803,1005.823 C 1803,1004.769 1799.713,996.912 1797.524,992.734 C 1796.727,991.213 1796.326,989.314 1796.633,988.514 C 1796.940,987.714 1796.249,985.860 1795.096,984.395 C 1793.943,982.930 1792.998,981.003 1792.996,980.115 C 1792.992,978.217 1787.861,967.647 1785.754,965.195 C 1784.140,963.317 1772.293,934.379 1772.164,932 C 1772.018,929.302 1770.299,922.591 1768.579,918 C 1767.652,915.525 1766.022,910.958 1764.956,907.850 C 1763.890,904.742 1761.492,899.324 1759.627,895.809 C 1757.762,892.294 1755.688,886.736 1755.018,883.459 C 1753.511,876.089 1750.671,870.282 1746.960,866.980 C 1743.631,864.018 1737,848.983 1737,844.395 C 1737,838.846 1738.789,838.462 1763.009,838.803 C 1763.009,838.803 1784.518,839.106 1784.518,839.106 C 1784.518,839.106 1787.717,847.303 1787.717,847.303 C 1798.832,875.779 1821.341,935.475 1826.548,950.286 C 1828.053,954.568 1829.769,957.910 1830.361,957.713 C 1830.953,957.516 1834.832,948.305 1838.980,937.245 C 1843.128,926.185 1847.530,915.774 1848.761,914.109 C 1849.992,912.444 1851.007,910.275 1851.015,909.290 C 1850.193,908.485 1856.447,909.572 1854.364,906.222 C 1853.559,904.951 1853.629,903.489 1854.630,900.643 C 1855.376,898.522 1855.773,896.441 1855.512,896.019 C 1855.251,895.597 1859.110,883.833 1864.088,869.876 C 1871.178,849.998 1873.719,844.014 1875.819,842.255 C 1878.950,839.633 1880.561,839.413 1881.362,841.500 C 1882.242,843.792 1887.080,843.411 1887.710,841 C 1888.204,839.111 1889.075,839 1903.417,839 C 1919.815,839 1921,839.349 1921,844.189 C 1921,847.677 1916.104,860.223 1914.323,861.300 C 1913.595,861.740 1913,863.382 1913,864.949 C 1913,866.717 1911.492,869.807 1909.028,873.086 C 1906.095,876.990 1905.208,878.981 1905.639,880.699 C 1905.960,881.979 1905.778,883.583 1905.233,884.263 C 1904.688,884.943 1903.232,888.425 1901.998,892 C 1895.776,910.025 1892.754,916.931 1890.421,918.460 C 1888.292,919.855 1887.998,920.797 1887.985,926.273 C 1887.977,929.698 1887.533,933.175 1884,935.500 C 1882.861,936.531 1882,938.580 1882,940.260 C 1882,941.882 1880.746,945.075 1879.213,947.355 C 1877.483,949.928 1875.735,954.724 1874.605,960 C 1872.328,970.628 1871.313,973.408 1868.909,975.583 C 1867.835,976.555 1867,978.628 1867,980.326 C 1867,981.985 1866.345,984.067 1865.545,984.951 C 1864.745,985.835 1863.402,989.198 1862.562,992.423 C 1861.720,995.656 1860.189,998.880 1859.151,999.607 C 1858.075,1000.361 1856.975,1002.752 1856.586,1005.187 C 1855.862,1009.718 1853.619,1013 1851.249,1013 C 1850.457,1013 1848.389,1014.013 1846.654,1015.250 C 1843.955,1017.175 1842.069,1017.530 1833.592,1017.704 C 1828.143,1017.816 1823.193,1018.084 1822.592,1018.300 C 1821.991,1018.516 1820.150,1018.325 1818.500,1017.875" stroke="#102F45" fill="#102F45" stroke-width="1" />
  <path id="162" d="M 1278.303,1016.095 C 1275.878,1014.075 1265.574,1013.262 1264.496,1015.006 C 1263.477,1016.654 1261.314,1016.182 1250.487,1011.949 C 1242.105,1008.672 1240.066,1007.478 1239.813,1005.699 C 1239.564,1003.948 1238.818,1003.488 1236.151,1003.444 C 1232.060,1003.376 1220.647,995.251 1211.106,985.614 C 1211.106,985.614 1204.713,979.156 1204.713,979.156 C 1204.713,979.156 1214.606,968.326 1214.606,968.326 C 1220.048,962.369 1226.808,954.839 1229.629,951.591 C 1229.629,951.591 1234.759,945.686 1234.759,945.686 C 1234.759,945.686 1243.111,952.916 1243.111,952.916 C 1247.705,956.892 1253.399,961.351 1255.763,962.823 C 1258.127,964.295 1261.684,966.737 1263.668,968.250 C 1265.652,969.763 1267.888,971 1268.637,971 C 1269.386,971 1270,971.686 1270,972.525 C 1270,975.256 1274.638,975.926 1293.670,975.950 C 1293.670,975.950 1312.401,975.974 1312.401,975.974 C 1312.401,975.974 1320.488,970.537 1320.488,970.537 C 1331.153,963.367 1333.416,959.545 1333.465,948.623 C 1333.494,942.068 1333.195,940.558 1331.684,939.623 C 1330.685,939.005 1328.129,936.859 1326.002,934.854 C 1321.382,930.499 1312.246,926.037 1298.560,921.453 C 1291.347,919.037 1287.891,917.324 1286.349,915.400 C 1284.368,912.928 1283.804,912.768 1279.213,913.377 C 1275.211,913.908 1272.774,913.519 1266.863,911.407 C 1245.868,903.904 1230.093,892.252 1223.009,879.016 C 1219.438,872.344 1216.820,861.988 1216.290,852.432 C 1215.334,835.214 1219.162,821.024 1228.522,807.072 C 1234.243,798.545 1239.352,794 1243.219,794 C 1244.900,794 1246.472,793.216 1247.232,792 C 1247.919,790.900 1248.803,790 1249.196,790 C 1249.589,790 1251.533,788.899 1253.515,787.554 C 1255.497,786.209 1257.797,785.369 1258.625,785.687 C 1259.514,786.028 1261.437,785.021 1263.316,783.231 C 1265.616,781.039 1268.547,779.707 1273.875,778.433 C 1280.352,776.884 1282.482,776.811 1291.375,777.841 C 1297.584,778.560 1302.678,778.674 1304.546,778.135 C 1306.566,777.552 1309.934,777.744 1314.546,778.703 C 1318.371,779.498 1322.962,779.919 1324.749,779.638 C 1328.832,778.995 1342.770,783.591 1351.814,788.562 C 1362.635,794.510 1376,805.137 1376,807.793 C 1376,809.651 1371.347,815.143 1368.632,816.491 C 1367.459,817.073 1366.343,818.664 1366.152,820.025 C 1365.647,823.621 1357.403,834.740 1353.899,836.552 C 1350.347,838.389 1347.543,837.751 1343.811,834.259 C 1341.921,832.490 1340.371,831.887 1338.592,832.227 C 1337.200,832.493 1336.310,832.307 1336.616,831.812 C 1337.658,830.127 1334.727,827.956 1331.609,828.104 C 1327.540,828.297 1321.380,825.558 1320.782,823.290 C 1319.919,820.019 1306.458,817.709 1303.222,820.277 C 1302.415,820.918 1298.080,821.041 1291.444,820.612 C 1278.868,819.799 1276.246,820.708 1269.483,828.230 C 1265.067,833.141 1265,833.322 1265,840.271 C 1265,846.441 1265.385,847.926 1268.073,852.114 C 1273.581,860.697 1284.829,866.459 1313.727,875.503 C 1321.852,878.046 1329.279,880.350 1330.230,880.624 C 1331.181,880.898 1331.856,881.619 1331.730,882.228 C 1331.494,883.365 1334.699,884.470 1341.204,885.492 C 1343.907,885.917 1344.757,886.467 1344.349,887.531 C 1343.948,888.575 1345.694,889.843 1350.490,891.995 C 1354.175,893.648 1357.489,894.816 1357.856,894.589 C 1358.923,893.930 1361.412,896.221 1363.735,900 C 1364.918,901.925 1366.812,904.066 1367.943,904.758 C 1369.074,905.450 1370,906.677 1370,907.483 C 1370,908.289 1371.277,909.609 1372.837,910.416 C 1378.861,913.531 1383.964,930.531 1383.968,947.500 C 1383.972,962.178 1379.978,976.380 1373.006,986.477 C 1369.309,991.832 1358.184,1002.582 1356.750,1002.185 C 1356.124,1002.012 1354.685,1002.303 1353.555,1002.833 C 1352.425,1003.363 1349.831,1004.529 1347.792,1005.425 C 1345.753,1006.321 1343.822,1007.478 1343.501,1007.998 C 1342.318,1009.912 1333.616,1013 1329.403,1013 C 1326.774,1013 1323.568,1013.857 1321.280,1015.171 C 1317.836,1017.148 1315.853,1017.367 1299,1017.633 C 1282.285,1017.896 1280.288,1017.748 1278.303,1016.095" stroke="#102F45" fill="#102F45" stroke-width="1" />
  <path id="164" d="M 2171.500,1082.999 C 2164.198,1081.901 2158.505,1080.292 2149.500,1076.785 C 2145.100,1075.071 2141.339,1073.545 2141.142,1073.393 C 2140.811,1073.138 2153.898,1035.991 2154.631,1035.104 C 2154.811,1034.886 2157.635,1035.909 2160.906,1037.377 C 2164.508,1038.993 2171.167,1040.694 2177.788,1041.689 C 2177.788,1041.689 2188.721,1043.332 2188.721,1043.332 C 2188.721,1043.332 2195.285,1037.055 2195.285,1037.055 C 2202.991,1029.686 2206.148,1023.393 2206.307,1015.082 C 2206.396,1010.450 2205.540,1007.457 2201.283,997.500 C 2198.461,990.900 2194.035,980.325 2191.447,974 C 2185.922,960.497 2178.679,942.896 2172.314,927.500 C 2169.813,921.450 2165.169,910.200 2161.993,902.500 C 2158.817,894.800 2151.847,877.925 2146.503,865 C 2141.159,852.075 2136.562,840.938 2136.287,840.250 C 2135.894,839.270 2141.273,839 2161.225,839 C 2161.225,839 2186.664,839 2186.664,839 C 2186.664,839 2191.937,852.926 2191.937,852.926 C 2194.837,860.585 2196.909,867.338 2196.542,867.932 C 2195.294,869.951 2199.347,879.522 2201.013,878.492 C 2201.445,878.225 2203.052,881.492 2204.584,885.753 C 2206.115,890.014 2211.823,904.975 2217.268,919 C 2222.713,933.025 2228.122,947.312 2229.288,950.750 C 2230.454,954.188 2231.777,957 2235.825,952 C 2237.249,952 2244.108,939.722 2243.528,938.211 C 2243.232,937.439 2244.328,935.654 2245.998,934.189 C 2249.205,931.375 2249.915,928.288 2247.563,927.386 C 2245.902,926.749 2246.142,925.835 2250.240,917.183 C 2251.886,913.708 2253.352,908.967 2253.498,906.646 C 2253.820,901.528 2257.045,890.910 2258.083,891.551 C 2259.189,892.235 2262.899,885.780 2263.639,881.885 C 2263.993,880.023 2264.723,877.938 2265.263,877.250 C 2264.615,873.564 2265.204,872.671 2266.812,871.500 C 2267.049,870.400 2268.314,868.228 2269.622,866.673 C 2270.930,865.118 2272,863.261 2272,862.546 C 2273,862.035 2276.250,853.129 2276,853.500 C 2277.671,852.467 2277.118,849.844 2275.119,849.321 C 2273.485,848.894 2273.382,848.449 2274.334,845.927 C 2276.363,840.553 2285.627,838.436 2289.053,842.564 C 2290.721,844.574 2301.319,844.525 2303,842.500 C 2303.694,841.664 2305.873,841 2307.922,841 C 2309.945,841 2312.028,840.588 2312.550,840.084 C 2313.730,838.946 2326.005,838.210 2326.002,839.277 C 2326,840.237 2297.905,911.013 2278.280,959.500 C 2270.266,979.300 2262.044,999.775 2260.010,1005 C 2251.971,1025.653 2242.480,1047.775 2239.418,1053 C 2226.219,1075.521 2199.691,1087.239 2171.500,1082.999M 2280.554,860.913 C 2281.585,859.246 2279.266,857.333 2277.887,858.713 C 2276.733,859.867 2277.455,862 2279,862 C 2279.485,862 2280.184,861.511 2280.554,860.913" stroke="#123046" fill="#123046" stroke-width="1" />
  <path id="162" d="M 2186.413,1041.426 C 2190.460,1039.943 2191.678,1040.093 2190.541,1041.933 C 2190.178,1042.520 2188.221,1042.969 2186.191,1042.930 C 2186.191,1042.930 2182.500,1042.859 2182.500,1042.859 C 2182.500,1042.859 2186.413,1041.426 2186.413,1041.426" stroke="#102F45" fill="#102F45" stroke-width="1" />
  <path id="162" d="M 1949.765,1014.204 C 1949.168,1013.491 1948.074,1013.141 1947.334,1013.425 C 1946.212,1013.855 1946.032,999.459 1946.245,926.721 C 1946.245,926.721 1946.500,839.500 1946.500,839.500 C 1946.500,839.500 1969.598,839.232 1969.598,839.232 C 1969.598,839.232 1992.696,838.964 1992.696,838.964 C 1992.696,838.964 1993.098,846.232 1993.098,846.232 C 1993.714,857.367 1993.576,955.014 1992.926,967.799 C 1992.610,974.014 1992.723,979.329 1993.176,979.609 C 1993.629,979.889 1994,985.760 1994,992.655 C 1994,1003.192 1993.707,1005.615 1992.163,1007.846 C 1991.153,1009.306 1990.041,1011.287 1989.694,1012.250 C 1989.147,1013.765 1987.656,1014 1978.590,1014 C 1972.277,1014 1967.857,1014.422 1967.461,1015.062 C 1966.515,1016.593 1951.142,1015.847 1949.765,1014.204" stroke="#102F45" fill="#102F45" stroke-width="1" />
  <path id="162" d="M 1468,1016.022 C 1450.345,1010.371 1435.512,999.771 1424.098,984.648 C 1417.165,975.462 1413,967.012 1413,962.130 C 1413,959.661 1411.848,956.030 1409.897,952.352 C 1406.498,945.943 1406.648,947.945 1407.316,918 C 1407.599,905.299 1407.834,903.912 1411.287,894.559 C 1413.306,889.091 1417.104,880.994 1419.728,876.564 C 1428.436,861.867 1447.857,845.050 1457.971,843.449 C 1459.912,843.142 1462.281,842.465 1469.128,839.017 C 1472.724,833.819 1503.914,832.553 1520.500,836.932 C 1531.342,839.795 1543.490,845.586 1544.833,848.533 C 1545.487,849.968 1546.964,851.001 1548.847,852.745 C 1545.130,854.330 1544.341,856.046 1546.578,857.681 C 1549.261,859.643 1551.565,858.914 1551.187,856.225 C 1551.015,855.001 1551.240,854.014 1551.687,854.032 C 1553.977,854.122 1556.072,857.250 1557.084,862.093 C 1558.463,868.691 1559.430,869.885 1561.158,867.118 C 1562.681,864.679 1564,864.356 1564,866.423 C 1564,868.399 1568.871,874 1570.589,874 C 1571.365,874 1572,874.688 1572,875.529 C 1572,877.596 1577.815,889 1578.869,889 C 1579.969,889 1583.666,901.739 1584.964,910 C 1585.526,913.575 1585.988,922.237 1585.992,929.250 C 1585.992,929.250 1586,942 1586,942 C 1586,942 1520.667,942 1520.667,942 C 1484.734,942 1455.078,942.255 1454.766,942.567 C 1454.454,942.879 1454.639,944.731 1455.178,946.681 C 1456.058,949.868 1455.879,950.517 1453.408,953.096 C 1450.702,955.921 1450.688,955.998 1452.540,958.044 C 1453.608,959.224 1455.195,959.920 1458.250,964.873 C 1460.951,964.549 1467.854,971.067 1467.641,973.740 C 1467.533,975.098 1468.327,975.534 1471.124,975.648 C 1473.117,975.729 1475.676,976.292 1476.809,976.898 C 1477.942,977.504 1480.025,978 1481.438,978 C 1482.851,978 1485.687,978.900 1487.739,980 C 1489.791,981.100 1492.624,982 1494.035,982 C 1495.446,982 1497.035,982.435 1497.566,982.966 C 1498.187,983.587 1500.779,983.408 1504.829,982.463 C 1508.293,981.655 1512.226,981.270 1513.570,981.607 C 1517.490,982.591 1522.791,981.120 1526.271,978.085 C 1529.874,974.943 1537.154,971 1539.353,971 C 1540.141,971 1541.045,971.675 1541.362,972.500 C 1542.894,976.493 1548.818,971.153 1547.492,966.974 C 1546.899,965.107 1547.162,964.889 1549.659,965.175 C 1552.499,965.500 1552.500,965.503 1552.500,973 C 1552.500,979 1552.800,980.500 1554,980.500 C 1554.825,980.500 1556.740,982.188 1558.256,984.250 C 1559.772,986.312 1561.572,988.006 1562.256,988.014 C 1574.496,982.323 1571.930,993.893 1566.450,997 C 1563.545,997 1559,1000.021 1559,1001.953 C 1559,1002.999 1557.827,1004.778 1556.393,1005.906 C 1552.532,1008.943 1540.950,1014.195 1539.414,1013.605 C 1538.681,1013.324 1536.150,1013.691 1533.790,1014.421 C 1531.430,1015.151 1526.773,1016.255 1523.440,1016.874 C 1516.133,1018.231 1490.023,1018.324 1481.031,1017.025 C 1477.473,1016.511 1474.323,1016.471 1474.031,1016.936 C 1473.739,1017.401 1471.025,1016.990 1468,1016.022M 1539.521,909.813 C 1540.744,908.587 1535.044,893.629 1531.525,888.833 C 1522.166,876.076 1503.034,870.086 1485.858,874.537 C 1482.596,875.382 1479.532,875.829 1479.048,875.530 C 1477.584,874.625 1473.005,876.841 1473.493,878.218 C 1473.743,878.923 1471.942,881.009 1469.491,882.853 C 1467.040,884.697 1464.091,887.735 1462.936,889.603 C 1461.781,891.471 1460.210,893 1459.444,893 C 1457.939,893 1455,897.927 1455.934,904.672 C 1454.027,909.688 1454.685,909.922 1471.709,910.288 C 1497.492,910.842 1538.784,910.552 1539.521,909.813" stroke="#102F45" fill="#102F45" stroke-width="1" />
  <path id="162" d="M 1616.119,928 C 1616.119,928 1616.414,839 1616.414,839 C 1616.414,839 1636.533,839 1636.533,839 C 1656.270,839 1656.693,839.043 1658.826,841.314 C 1661.540,844.203 1661.609,847.139 1659,848.768 C 1657.900,849.455 1657,850.702 1657,851.540 C 1657,853.669 1659.714,854.482 1661.600,852.917 C 1662.999,851.756 1663.144,852.113 1662.898,856.115 C 1662.683,859.615 1663.095,861.095 1664.744,862.744 C 1670.542,864.650 1676.933,848.561 1680.290,848 C 1680.838,845.904 1683.441,845.286 1684.500,847 C 1686.246,849.826 1692.932,847.079 1695,842.686 C 1696.480,839.541 1696.604,839.496 1704.453,839.204 C 1708.827,839.041 1712.877,838.523 1713.453,838.052 C 1714.488,837.206 1717.391,836.661 1719.679,836.885 C 1720.495,836.965 1720.693,838.616 1720.324,842.250 C 1720.031,845.138 1719.693,853.917 1719.574,861.761 C 1719.574,861.761 1719.357,876.023 1719.357,876.023 C 1719.357,876.023 1715.984,878.511 1715.984,878.511 C 1712.919,880.772 1711.648,881.009 1702.056,881.100 C 1696.250,881.155 1690.491,881.492 1689.259,881.850 C 1688.027,882.208 1683.021,886.438 1678.135,891.250 C 1673.249,896.062 1668.575,900 1667.748,900 C 1663.571,900 1663.516,900.705 1663.143,960.154 C 1663.143,960.154 1662.787,1017 1662.787,1017 C 1662.787,1017 1639.305,1017 1639.305,1017 C 1639.305,1017 1615.824,1017 1615.824,1017 C 1615.824,1017 1616.119,928 1616.119,928M 1626,873.059 C 1626,870.891 1625.550,868.840 1625,868.500 C 1624.389,868.122 1624,869.656 1624,872.441 C 1624,874.948 1624.450,877 1625,877 C 1625.550,877 1626,875.227 1626,873.059" stroke="#102F45" fill="#102F45" stroke-width="1" />
  <path id="164" d="M 1333.186,883.945 C 1331.913,883.435 1331.136,882.591 1331.458,882.069 C 1331.953,881.269 1338.453,883.217 1339.917,884.605 C 1340.730,885.375 1335.465,884.859 1333.186,883.945" stroke="#123046" fill="#123046" stroke-width="1" />
  <path id="164" d="M 1236,1004.945 C 1236,1004.945 1233.500,1002.935 1233.500,1002.935 C 1233.500,1002.935 1236.491,1003.217 1236.491,1003.217 C 1238.402,1003.398 1239.603,1004.132 1239.815,1005.250 C 1240.246,1007.525 1239.094,1007.433 1236,1004.945" stroke="#123046" fill="#123046" stroke-width="1" />
  <path id="138" d="M 1282.500,1019.988 C 1271.625,1018.837 1263.836,1016.990 1264.277,1015.667 C 1264.968,1013.594 1275.148,1013.876 1278.195,1016.053 C 1280.664,1017.817 1282.429,1017.952 1299.195,1017.660 C 1315.818,1017.371 1317.847,1017.142 1321.280,1015.171 C 1323.568,1013.857 1326.774,1013 1329.403,1013 C 1333.616,1013 1342.318,1009.912 1343.501,1007.998 C 1343.822,1007.478 1345.753,1006.329 1347.792,1005.443 C 1349.831,1004.557 1352.281,1003.420 1353.236,1002.916 C 1356.030,1001.442 1357.442,1001.762 1355.970,1003.536 C 1353.695,1006.277 1342.721,1011.807 1333.303,1014.957 C 1317.442,1020.262 1300.730,1021.917 1282.500,1019.988" stroke="#182A34" fill="#182A34" stroke-width="1" />
  <path id="138" d="M 1366,820.257 C 1366,819.150 1366.686,817.676 1367.524,816.980 C 1370.003,814.922 1370.401,816.675 1368.114,819.582 C 1366.219,821.991 1366,822.061 1366,820.257" stroke="#182A34" fill="#182A34" stroke-width="1" />
  <path id="164" d="M 1770.342,929.250 C 1763.320,911.637 1755.745,892.855 1750.917,881.081 C 1747.665,873.151 1745.218,866.450 1745.478,866.189 C 1747.391,864.276 1753.124,874.492 1754.826,882.847 C 1755.537,886.338 1757.622,892.029 1759.460,895.493 C 1762.710,901.618 1766.489,911.321 1769.590,921.500 C 1770.428,924.250 1771.499,927.737 1771.970,929.250 C 1772.441,930.763 1772.514,932 1772.132,932 C 1771.750,932 1770.945,930.763 1770.342,929.250" stroke="#123046" fill="#123046" stroke-width="1" />
  <path id="164" d="M 1406.310,927 C 1406.335,915.246 1406.413,914.599 1406.919,922 C 1407.238,926.675 1407.226,932.750 1406.891,935.500 C 1406.535,938.422 1406.294,934.888 1406.310,927" stroke="#123046" fill="#123046" stroke-width="1" />
  <path id="138" d="M 1482.164,1019.491 C 1478.129,1018.760 1474.567,1017.901 1474.248,1017.581 C 1472.961,1016.294 1474.885,1016.137 1481.037,1017.026 C 1490.023,1018.325 1516.136,1018.231 1523.440,1016.874 C 1526.773,1016.255 1531.489,1015.131 1533.920,1014.377 C 1538.373,1012.995 1540.674,1013.347 1537.998,1015.001 C 1535.827,1016.342 1524.466,1018.919 1516,1019.990 C 1505.666,1021.297 1490.934,1021.080 1482.164,1019.491" stroke="#182A34" fill="#182A34" stroke-width="1" />
  <path id="162" d="M 2085.583,1014.250 C 2085.170,1013.838 2077.195,1013.500 2067.861,1013.500 C 2050.936,1013.500 2050.884,1013.493 2048.971,1011 C 2047.133,1008.605 2047.042,1005.821 2046.777,944.500 C 2046.777,944.500 2046.500,880.500 2046.500,880.500 C 2046.500,880.500 2035.569,880 2035.569,880 C 2035.569,880 2024.638,879.500 2024.638,879.500 C 2024.638,879.500 2023.825,876.500 2023.825,876.500 C 2022.341,871.025 2021.565,842.387 2022.879,841.575 C 2024.487,840.582 2037.774,840.439 2038.731,841.405 C 2037.807,844.266 2043.577,848.042 2043.329,843.875 C 2043.205,841.979 2043.824,840.945 2045.556,840.156 C 2047.950,839.065 2047.954,839.033 2047.739,823.782 C 2047.567,811.572 2047.888,807.193 2049.340,802 C 2052.515,790.643 2059.991,778 2069.405,773.998 C 2070.007,773.997 2072.232,772.156 2074.349,769.906 C 2078.803,765.173 2083.342,763 2088.777,763 C 2090.890,763 2093.491,762.339 2094.559,761.532 C 2096.700,759.913 2114.554,759.294 2113.578,760.873 C 2113.032,761.756 2120.908,764.915 2128.802,766.980 C 2133.863,768.303 2135.476,771.097 2133.460,775.045 C 2132.745,776.445 2131.918,781.650 2131.620,786.611 C 2131.323,791.572 2130.804,796.348 2130.468,797.224 C 2129.346,800.148 2124.598,801.177 2113.701,800.859 C 2113.701,800.859 2103.215,800.553 2103.215,800.553 C 2103.215,800.553 2100.026,803.670 2100.026,803.670 C 2095.715,807.885 2094.646,812.355 2094.567,826.500 C 2094.567,826.500 2094.500,838.500 2094.500,838.500 C 2094.500,838.500 2107.500,839 2107.500,839 C 2120.805,839.512 2124.066,840.387 2125.977,843.957 C 2126.560,845.046 2127,853.214 2127,862.934 C 2127,862.934 2127,880 2127,880 C 2127,880 2110.891,880 2110.891,880 C 2095.555,880 2094.668,880.108 2092.408,882.250 C 2089.719,884.799 2088.999,891 2091.393,891 C 2092.159,891 2093.059,891.712 2093.393,892.582 C 2094.195,894.672 2094.181,1008.364 2093.379,1010.455 C 2093.037,1011.345 2091.484,1012.732 2089.928,1013.537 C 2086.652,1015.231 2086.577,1015.244 2085.583,1014.250M 2086.141,978.410 C 2085.645,959.195 2084,958.789 2084,977.883 C 2084,989.669 2084.286,993.070 2085.250,992.743 C 2086.193,992.423 2086.412,988.907 2086.141,978.410" stroke="#102F45" fill="#102F45" stroke-width="1" />
  <path id="164" d="M 1713.680,881.347 C 1713.321,880.988 1714.451,879.642 1716.192,878.358 C 1716.192,878.358 1719.357,876.023 1719.357,876.023 C 1719.357,876.023 1719.574,861.761 1719.574,861.761 C 1719.693,853.917 1720.031,845.138 1720.324,842.250 C 1720.693,838.616 1720.495,836.965 1719.679,836.885 C 1717.391,836.661 1714.488,837.206 1713.453,838.052 C 1712.877,838.523 1708.827,839.041 1704.453,839.204 C 1696.604,839.496 1696.480,839.541 1695,842.686 C 1692.932,847.079 1686.246,849.826 1684.500,847 C 1683.461,845.319 1680.842,845.887 1680.314,847.908 C 1676.111,851.407 1671.715,858.711 1668.605,861.413 C 1669.640,864.109 1666.559,864.682 1664.036,862.262 C 1662.681,860.962 1662.263,860.164 1663.108,860.488 C 1664.161,860.892 1666.135,859.180 1669.383,855.046 C 1679.514,842.150 1693.757,835.154 1711.747,834.236 C 1711.747,834.236 1722,833.713 1722,833.713 C 1722,833.713 1722,857.856 1722,857.856 C 1722,857.856 1722,882 1722,882 C 1722,882 1718.167,882 1718.167,882 C 1716.059,882 1714.039,881.706 1713.680,881.347" stroke="#123046" fill="#123046" stroke-width="1" />
  <path id="164" d="M 1992.844,979.510 C 1992.235,978.901 1992.884,956.783 1993.530,956.137 C 1993.789,955.878 1994,961.141 1994,967.833 C 1994,979.591 1993.904,980.570 1992.844,979.510" stroke="#123046" fill="#123046" stroke-width="1" />
  <path id="164" d="M 1821.012,1019.920 C 1815.108,1018.874 1807,1015.397 1807,1013.911 C 1807,1012.628 1807.224,1012.694 1812.862,1015.619 C 1815.987,1017.240 1819.355,1018.189 1821.705,1018.110 C 1823.792,1018.040 1829.550,1017.874 1834.500,1017.741 C 1841.991,1017.540 1844.028,1017.123 1846.654,1015.250 C 1848.389,1014.013 1850.379,1013 1853.093,1013.231 C 1851.148,1015.336 1847.715,1017.593 1845.093,1018.489 C 1839.208,1020.501 1828.038,1021.164 1821.012,1019.920" stroke="#123046" fill="#123046" stroke-width="1" />
  <path id="162" d="M 2237.944,943.750 C 2242.258,931.115 2251.738,906.262 2253.001,904.273 C 2255.329,900.606 2252.934,911.445 2250.078,917.500 C 2246.151,925.824 2245.915,926.754 2247.563,927.386 C 2249.915,928.288 2249.205,931.375 2245.998,934.189 C 2244.328,935.654 2243.232,937.439 2243.528,938.211 C 2244.086,939.666 2237.275,952 2235.913,952 C 2235.480,952 2236.394,948.287 2237.944,943.750" stroke="#102F45" fill="#102F45" stroke-width="1" />
  <path id="164" d="M 1624,872.441 C 1624,869.656 1624.389,868.122 1625,868.500 C 1625.550,868.840 1626,870.891 1626,873.059 C 1626,875.227 1625.550,877 1625,877 C 1624.450,877 1624,874.948 1624,872.441" stroke="#123046" fill="#123046" stroke-width="1" />
  <path id="162" d="M 2277.446,860.913 C 2276.415,859.246 2278.734,857.333 2280.113,858.713 C 2281.267,859.867 2280.545,862 2279,862 C 2278.515,862 2277.816,861.511 2277.446,860.913" stroke="#102F45" fill="#102F45" stroke-width="1" />
  <path id="164" d="M 1946.446,1015.913 C 1945.300,1014.059 1947.698,1012.505 1949.455,1013.963 C 1951.441,1015.612 1966.546,1016.542 1967.455,1015.072 C 1967.858,1014.420 1972.194,1014 1978.512,1014 C 1978.512,1014 1988.906,1014 1994,1011.441 C 1994,1011.441 1994,1017 1994,1017 C 1994,1017 1970.559,1017 1970.559,1017 C 1954.758,1017 1946.899,1016.646 1946.446,1015.913" stroke="#123046" fill="#123046" stroke-width="1" />
  <path id="164" d="M 1544.968,848.939 C 1543.890,846.924 1543.933,846.914 1546.932,848.465 C 1550.488,850.304 1550.791,851 1548.035,851 C 1546.954,851 1545.575,850.072 1544.968,848.939" stroke="#123046" fill="#123046" stroke-width="1" />
  <path id="164" d="M 2131.742,782.337 C 2132.025,779.677 2132.668,776.825 2133.170,776 C 2133.746,775.053 2133.846,776.527 2133.440,780 C 2133.086,783.025 2132.443,785.877 2132.011,786.337 C 2131.579,786.797 2131.458,784.997 2131.742,782.337" stroke="#123046" fill="#123046" stroke-width="1" />
  <path id="164" d="M 1541.176,972.350 C 1540.549,971.229 1539.490,970.887 1537.950,970.179 C 1539.297,969.255 1542.164,967.028 1544.321,965.228 C 1547.606,962.487 1548.493,962.163 1547.539,967.124 C 1548.274,969.439 1545.613,974 1543.527,974 C 1542.742,974 1541.684,973.257 1541.176,972.350" stroke="#123046" fill="#123046" stroke-width="1" />
  <path id="138" d="M 1455,900.450 C 1455,898.182 1457.875,893 1459.133,893 C 1459.766,893 1459.920,893.725 1459.505,894.750 C 1459.115,895.713 1458.347,897.737 1457.800,899.250 C 1456.723,902.224 1455,902.962 1455,900.450" stroke="#182A34" fill="#182A34" stroke-width="1" />
  <path id="164" d="M 1862.458,992.794 C 1863.297,988.720 1864.750,985.273 1865.935,984.540 C 1867.078,983.834 1866.458,985.764 1863.539,992 C 1862.180,994.904 1861.995,995.039 1862.458,992.794" stroke="#123046" fill="#123046" stroke-width="1" />
  <path id="164" d="M 1301,974.963 C 1306.775,974.559 1312.850,973.725 1315.139,973.995 C 1313.056,975.764 1311.467,975.982 1301.639,975.849 C 1301.639,975.849 1290.500,975.698 1290.500,975.698 C 1290.500,975.698 1301,974.963 1301,974.963" stroke="#123046" fill="#123046" stroke-width="1" />
  <path id="164" d="M 1476.657,976.868 C 1475.643,976.279 1473.168,975.730 1471.157,975.648 C 1468.330,975.533 1467.532,975.100 1467.641,973.740 C 1467.854,971.067 1460.951,964.549 1458.250,964.873 C 1458.362,960.434 1454.964,958.831 1452.546,958.051 C 1450.706,956.018 1450.715,955.933 1453.010,953.490 C 1454.296,952.121 1455.659,951 1456.038,951 C 1456.417,951 1457.480,952.970 1458.400,955.378 C 1460.619,961.188 1469.081,970.155 1476.441,974.496 C 1479.892,976.531 1481.569,977.988 1480.441,977.970 C 1479.373,977.953 1477.671,977.457 1476.657,976.868" stroke="#123046" fill="#123046" stroke-width="1" />
  <path id="164" d="M 2123.500,802.077 C 2123.500,802.077 2120.500,801.390 2120.500,801.390 C 2120.500,801.390 2123.500,800.836 2123.500,800.836 C 2125.150,800.532 2127.288,799.946 2128.250,799.534 C 2129.600,798.957 2130,799.268 2130,800.893 C 2130,803.124 2128.928,803.319 2123.500,802.077" stroke="#123046" fill="#123046" stroke-width="1" />
  <path id="164" d="M 2096,809.456 C 2096,807.538 2103.361,799.993 2105.211,800.015 C 2108.607,800.055 2108.804,801.669 2105.558,802.843 C 2103.676,803.523 2100.757,805.653 2099.069,807.575 C 2097.023,809.905 2096,810.532 2096,809.456" stroke="#123046" fill="#123046" stroke-width="1" />
  <path id="164" d="M 1566.589,870.923 C 1565.165,869.231 1564,867.206 1564,866.423 C 1564,864.356 1562.681,864.679 1561.158,867.118 C 1559.430,869.885 1558.463,868.691 1557.084,862.093 C 1556.072,857.250 1553.977,854.122 1551.687,854.032 C 1551.240,854.014 1551.015,855.001 1551.187,856.225 C 1551.568,858.937 1549.254,859.637 1546.518,857.637 C 1544.922,856.470 1544.800,855.946 1545.829,854.706 C 1546.518,853.875 1548.262,852.900 1549.705,852.538 C 1551.979,851.967 1553.233,852.777 1559.132,858.631 C 1567.431,866.866 1572.777,874 1570.651,874 C 1569.841,874 1568.013,872.615 1566.589,870.923" stroke="#123046" fill="#123046" stroke-width="1" />
  <path id="164" d="M 1371.750,909.920 C 1370.787,909.359 1370,908.258 1370,907.473 C 1370,906.688 1368.983,905.380 1367.741,904.566 C 1366.498,903.752 1364.635,901.604 1363.601,899.793 C 1361.758,896.567 1361.810,896.586 1366.140,900.742 C 1368.571,903.075 1371.359,906.338 1372.336,907.992 C 1374.296,911.310 1374.272,911.389 1371.750,909.920" stroke="#123046" fill="#123046" stroke-width="1" />
  <path id="138" d="M 1344,837.845 C 1340.425,835.065 1335.700,831.839 1333.500,830.677 C 1329.766,828.705 1329.664,828.539 1331.962,828.185 C 1333.583,827.935 1335.003,828.522 1336.122,829.903 C 1337.056,831.057 1338.683,832 1339.736,832 C 1340.789,832 1342.673,833.087 1343.921,834.415 C 1346.693,837.365 1350.372,838.406 1350.500,842.900 C 1350.500,842.900 1344,837.845 1344,837.845" stroke="#182A34" fill="#182A34" stroke-width="1" />
  <path id="164" d="M 1281,916.106 C 1276.855,914.826 1275.952,914.234 1277.332,913.704 C 1281.150,912.237 1284.735,912.947 1286.408,915.500 C 1288.288,918.370 1288.321,918.367 1281,916.106" stroke="#123046" fill="#123046" stroke-width="1" />
  <path id="164" d="M 1575.010,883.019 C 1573.293,879.618 1572.060,876.321 1572.270,875.691 C 1572.480,875.061 1574.146,877.582 1575.973,881.293 C 1577.800,885.004 1579.032,888.301 1578.712,888.621 C 1578.392,888.941 1576.727,886.420 1575.010,883.019" stroke="#123046" fill="#123046" stroke-width="1" />
  <path id="164" d="M 1456,843.408 C 1456,843.028 1463.985,839.457 1467.250,840.622 C 1466.287,840.930 1464.600,841.556 1463.500,842.015 C 1461.316,842.926 1456,843.913 1456,843.408" stroke="#123046" fill="#123046" stroke-width="1" />
  <path id="164" d="M 1350.250,891.972 C 1344.613,889.375 1342.166,887 1345.128,887 C 1346.557,887 1356.763,892.806 1357.538,894.061 C 1358.427,895.499 1357.046,895.103 1350.250,891.972" stroke="#123046" fill="#123046" stroke-width="1" />
  <path id="164" d="M 2084,977.883 C 2084,958.789 2085.645,959.195 2086.141,978.410 C 2086.412,988.907 2086.193,992.423 2085.250,992.743 C 2084.286,993.070 2084,989.669 2084,977.883" stroke="#123046" fill="#123046" stroke-width="1" />
  <path id="164" d="M 1867.079,980.405 C 1867.030,978.492 1867.772,976.611 1869.022,975.480 C 1871.033,973.660 1871.037,973.669 1869.652,977.075 C 1868.886,978.959 1868.012,981.175 1867.709,982 C 1867.406,982.825 1867.122,982.107 1867.079,980.405" stroke="#123046" fill="#123046" stroke-width="1" />
  <path id="164" d="M 1664,906.802 C 1664,902.176 1665.681,899.521 1668.202,900.167 C 1669.149,900.410 1668.756,901.969 1666.750,905.929 C 1666.750,905.929 1664,911.359 1664,911.359 C 1664,911.359 1664,906.802 1664,906.802" stroke="#123046" fill="#123046" stroke-width="1" />
  <path id="164" d="M 1272.250,974.969 C 1271.012,974.472 1270,973.375 1270,972.532 C 1270,971.689 1269.375,971 1268.611,971 C 1267.847,971 1266.159,970.102 1264.861,969.005 C 1262.634,967.124 1262.784,967.135 1267.500,969.191 C 1270.250,970.390 1276.550,972.369 1281.500,973.590 C 1281.500,973.590 1290.500,975.809 1290.500,975.809 C 1290.500,975.809 1282.500,975.841 1282.500,975.841 C 1278.100,975.859 1273.488,975.466 1272.250,974.969" stroke="#123046" fill="#123046" stroke-width="1" />
  <path id="164" d="M 1888.030,925.273 C 1888.004,920.828 1888.362,919.809 1890.421,918.460 C 1892.754,916.931 1895.776,910.025 1901.998,892 C 1903.232,888.425 1904.688,884.943 1905.233,884.263 C 1905.778,883.583 1905.960,881.979 1905.639,880.699 C 1905.208,878.981 1906.095,876.990 1909.028,873.086 C 1911.492,869.807 1913,866.717 1913,864.949 C 1913,863.382 1913.595,861.740 1914.323,861.300 C 1916.104,860.223 1921,847.677 1921,844.189 C 1921,842.655 1920.460,840.860 1919.800,840.200 C 1920.085,838 1929.555,839.400 1924.505,841.991 C 1923.654,843.636 1921.673,848.249 1920.102,852.241 C 1912.449,871.695 1889.754,927.609 1888.961,928.962 C 1888.344,930.016 1888.051,928.855 1888.030,925.273" stroke="#123046" fill="#123046" stroke-width="1" />
  <path id="164" d="M 1512.500,981 C 1512.153,980.439 1512.937,980 1514.284,980 C 1515.605,980 1519.281,979.107 1522.452,978.016 C 1527.434,976.302 1528.033,976.255 1526.859,977.671 C 1523.984,981.137 1514.014,983.449 1512.500,981" stroke="#123046" fill="#123046" stroke-width="1" />
  <path id="164" d="M 1333.160,946.700 C 1333.072,945.710 1332.313,943.573 1331.474,941.950 C 1330.635,940.327 1330.355,939 1330.852,939 C 1332.730,939 1334.121,941.991 1333.728,945.185 C 1333.504,947.008 1333.248,947.690 1333.160,946.700" stroke="#123046" fill="#123046" stroke-width="1" />
  <path id="164" d="M 1873.106,966.500 C 1873.032,963.132 1876.977,950.834 1879.274,947.270 C 1880.774,944.943 1882,941.751 1882,940.175 C 1882,937.376 1885.347,933.068 1886.264,934.685 C 1886.518,935.133 1884.300,941.350 1881.335,948.500 C 1874.979,963.826 1873.136,967.859 1873.106,966.500" stroke="#123046" fill="#123046" stroke-width="1" />
  <path id="164" d="M 1847.244,915 C 1849.179,909.781 1854.436,896.429 1854.692,896.083 C 1854.862,895.854 1855.230,895.896 1855.511,896.177 C 1855.792,896.458 1855.403,898.446 1854.647,900.594 C 1853.632,903.480 1853.558,904.949 1854.364,906.222 C 1856.618,908.992 1849.453,908.992 1851.015,909.342 C 1851.007,910.355 1850.030,912.380 1848.844,913.842 C 1847.658,915.304 1846.938,915.825 1847.244,915" stroke="#123046" fill="#123046" stroke-width="1" />
  <path id="164" d="M 2126,843.985 C 2126,843.427 2124.538,842.079 2123.250,839.004 C 2126.751,839.001 2127,839.199 2127,842 C 2127,843.650 2126.775,845 2126.500,845 C 2126.225,845 2126,844.543 2126,843.985" stroke="#123046" fill="#123046" stroke-width="1" />
  <path id="164" d="M 2093.136,892.250 C 2093.061,891.562 2092.325,891 2091.500,891 C 2089.081,891 2089.625,884.888 2092.267,882.385 C 2092.267,882.385 2094.500,880.270 2094.500,880.270 C 2094.500,880.270 2094.208,884.885 2094.208,884.885 C 2093.863,890.338 2093.328,894.011 2093.136,892.250" stroke="#123046" fill="#123046" stroke-width="1" />
  <path id="162" d="M 2258.022,891.243 C 2258.010,890.552 2259.533,886.052 2261.407,881.243 C 2263.281,876.434 2266.717,867.213 2269.043,860.750 C 2271.694,853.383 2273.792,849 2274.667,849 C 2276.554,849 2277.538,851.862 2276.133,853.267 C 2275.806,855.345 2272.128,862.889 2272,862.546 C 2272,863.261 2270.875,865.184 2269.500,866.818 C 2268.125,868.452 2267,870.484 2267,871.335 C 2265.681,873.552 2265.313,876.074 2265.127,877.709 C 2264.610,878.694 2263.694,881.300 2263.091,883.500 C 2261.977,887.562 2258.063,893.542 2258.022,891.243" stroke="#102F45" fill="#102F45" stroke-width="1" />
  <path id="138" d="M 2047.022,1012.750 C 2047.022,1012.750 2047.044,1008.500 2047.044,1008.500 C 2047.044,1008.500 2048.967,1011 2048.967,1011 C 2050.882,1013.491 2050.951,1013.500 2067.695,1013.503 C 2076.938,1013.505 2085.050,1013.861 2085.721,1014.294 C 2087.119,1015.196 2092.565,1012.675 2094,1017 C 2094,1017 2070.500,1017 2070.500,1017 C 2070.500,1017 2047,1017 2047,1017 C 2047,1017 2047.022,1012.750 2047.022,1012.750" stroke="#182A34" fill="#182A34" stroke-width="1" />
  <path id="98" d="M 1616.374,853.500 C 1616.376,847.450 1616.541,845.103 1616.740,848.286 C 1616.939,851.469 1616.937,856.419 1616.736,859.286 C 1616.535,862.153 1616.372,859.550 1616.374,853.500" stroke="#122239" fill="#122239" stroke-width="1" />
  <path id="164" d="M 1735.232,843.101 C 1734.554,841.231 1734,839.544 1738.762,840.250 C 1737.871,840.938 1736.989,842.625 1736.803,844 C 1736.483,846.360 1736.395,846.311 1735.232,843.101" stroke="#123046" fill="#123046" stroke-width="1" />
  <path id="164" d="M 1803.160,1009 C 1801.979,1007.075 1798.012,997.850 1794.343,988.500 C 1790.674,979.150 1787.048,969.996 1786.285,968.159 C 1785.522,966.322 1785.336,965.089 1785.871,965.420 C 1787.191,966.236 1793,978.275 1793,980.194 C 1793,981.039 1793.943,982.930 1795.096,984.395 C 1796.249,985.860 1796.940,987.714 1796.633,988.514 C 1796.326,989.314 1796.727,991.213 1797.524,992.734 C 1799.517,996.538 1803,1004.731 1803,1005.616 C 1803,1006.015 1803.722,1007.139 1804.603,1008.113 C 1805.484,1009.087 1806.003,1010.473 1805.756,1011.192 C 1805.485,1011.983 1804.458,1011.116 1803.160,1009" stroke="#123046" fill="#123046" stroke-width="1" />
  <path id="164" d="M 1265.607,848.418 C 1265.273,847.548 1265,843.772 1265,840.026 C 1265,833.367 1265.099,833.106 1269.483,828.230 C 1271.949,825.488 1275.504,822.514 1277.384,821.622 C 1281.150,819.835 1289.509,819.367 1288.500,821 C 1288.160,821.550 1286.896,822.005 1285.691,822.010 C 1281.946,822.027 1273.636,826.511 1270.292,830.320 C 1266.724,834.384 1265.510,838.963 1266.254,845.562 C 1266.782,850.245 1266.606,851.022 1265.607,848.418" stroke="#123046" fill="#123046" stroke-width="1" />
  <path id="164" d="M 1473.499,877.998 C 1472.847,876.942 1477.890,874.556 1478.816,875.482 C 1479.366,876.032 1476.058,878.911 1474.809,878.968 C 1474.429,878.986 1473.839,878.549 1473.499,877.998" stroke="#123046" fill="#123046" stroke-width="1" />
  <path id="164" d="M 1684.161,885.448 C 1687.694,881.841 1688.096,881.700 1695.661,881.398 C 1703.226,881.096 1703.316,881.119 1698.233,882.037 C 1695.336,882.560 1690.161,884.383 1686.733,886.087 C 1686.733,886.087 1680.500,889.186 1680.500,889.186 C 1680.500,889.186 1684.161,885.448 1684.161,885.448" stroke="#123046" fill="#123046" stroke-width="1" />
  <path id="164" d="M 1243.500,791.497 C 1246.816,788.741 1257.489,783.293 1262.921,783.584 C 1261.516,785.079 1259.820,785.925 1258.773,785.651 C 1257.799,785.396 1255.407,786.271 1253.457,787.594 C 1251.507,788.917 1249.589,790 1249.196,790 C 1248.803,790 1247.919,790.900 1247.232,792 C 1246.475,793.213 1244.904,793.998 1243.242,793.995 C 1243.242,793.995 1240.500,793.990 1240.500,793.990 C 1240.500,793.990 1243.500,791.497 1243.500,791.497" stroke="#123046" fill="#123046" stroke-width="1" />
  <path id="127" d="M 1992.832,846.902 C 1992.649,842.998 1992.838,839.596 1993.250,839.343 C 1993.662,839.090 1994,842.284 1994,846.441 C 1994,850.598 1993.812,854 1993.582,854 C 1993.352,854 1993.015,850.806 1992.832,846.902" stroke="#303F4C" fill="#303F4C" stroke-width="1" />
  <path id="164" d="M 1856.652,1005.500 C 1856.972,1003.300 1857.845,1000.852 1858.593,1000.060 C 1860.929,997.585 1860.862,999.302 1858.420,1004.500 C 1858.420,1004.500 1856.071,1009.500 1856.071,1009.500 C 1856.071,1009.500 1856.652,1005.500 1856.652,1005.500" stroke="#123046" fill="#123046" stroke-width="1" />
  <path id="164" d="M 1410.133,957.686 C 1408.847,953.938 1408.060,950.607 1408.385,950.282 C 1409.416,949.251 1413.140,958.956 1412.799,961.786 C 1412.535,963.976 1412.021,963.186 1410.133,957.686" stroke="#123046" fill="#123046" stroke-width="1" />
  <path id="164" d="M 1558.760,1002.477 C 1559.245,999.938 1563.370,997 1566.450,997 C 1575.704,992.544 1569.612,982.435 1562.256,988.014 C 1561.572,988.006 1559.772,986.312 1558.256,984.250 C 1556.740,982.188 1554.825,980.500 1554,980.500 C 1552.828,980.500 1552.502,979.151 1552.507,974.327 C 1552.511,970.932 1552.814,967.853 1553.182,967.485 C 1553.996,966.671 1576.973,987.050 1576.989,988.600 C 1577,989.689 1568.859,997.085 1561.886,1002.318 C 1561.886,1002.318 1558.272,1005.030 1558.272,1005.030 C 1558.272,1005.030 1558.760,1002.477 1558.760,1002.477" stroke="#123046" fill="#123046" stroke-width="1" />
  <path id="164" d="M 2021,859.500 C 2021,859.500 2021,839 2021,839 C 2021,839 2033.956,839 2033.956,839 C 2033.956,839 2046.912,839 2046.912,839 C 2046.912,839 2047.257,831.750 2047.257,831.750 C 2047.257,831.750 2047.603,824.500 2047.603,824.500 C 2047.603,824.500 2047.801,831.771 2047.801,831.771 C 2047.987,838.584 2047.848,839.112 2045.579,840.146 C 2043.825,840.945 2043.205,841.973 2043.329,843.875 C 2042.309,851.207 2037.776,840.945 2038.731,841.405 C 2037.774,840.439 2024.487,840.582 2022.879,841.575 C 2021.501,842.427 2022.360,871.307 2023.926,876.750 C 2024.751,879.617 2024.633,880 2022.930,880 C 2021.086,880 2021,879.086 2021,859.500" stroke="#123046" fill="#123046" stroke-width="1" />
  <path id="164" d="M 1497.563,983.102 C 1497.280,982.644 1495.183,982.020 1492.903,981.714 C 1490.623,981.408 1488.308,980.708 1487.757,980.157 C 1487.089,979.489 1488.044,979.454 1490.628,980.054 C 1492.758,980.548 1497.875,981.002 1502,981.062 C 1507.032,981.136 1508.677,981.419 1507,981.922 C 1501.988,983.425 1498.066,983.915 1497.563,983.102" stroke="#123046" fill="#123046" stroke-width="1" />
  <path id="138" d="M 1314,822.964 C 1310.425,821.958 1306.461,821.104 1305.191,821.067 C 1301.089,820.948 1303.818,819.257 1308.257,819.168 C 1313.695,819.059 1320.401,821.320 1320.823,823.404 C 1321.001,824.282 1321.001,824.954 1320.823,824.897 C 1320.645,824.840 1317.575,823.970 1314,822.964" stroke="#182A34" fill="#182A34" stroke-width="1" />
  <path id="164" d="M 2065.225,774.686 C 2067.824,772.384 2071.801,769.452 2074.063,768.170 C 2074.063,768.170 2078.176,765.839 2078.176,765.839 C 2078.176,765.839 2074.338,769.918 2074.338,769.918 C 2072.227,772.161 2070.007,773.997 2069.405,773.998 C 2068.803,773.999 2067.536,774.855 2066.590,775.900 C 2065.644,776.945 2063.887,778.042 2062.685,778.336 C 2061.134,778.716 2061.872,777.657 2065.225,774.686" stroke="#123046" fill="#123046" stroke-width="1" />
  <path id="164" d="M 1657.302,852.344 C 1656.900,851.296 1657.462,850.044 1658.833,848.934 C 1661.586,846.705 1661.584,844.250 1659.228,839 C 1661.634,839 1661.850,839.399 1662.503,845.026 C 1662.990,849.225 1662.832,851.499 1661.979,852.526 C 1660.353,854.485 1658.090,854.396 1657.302,852.344" stroke="#123046" fill="#123046" stroke-width="1" />
  <path id="7" d="M 1455.446,908.721 C 1454.712,906.808 1458.596,896.304 1461.998,891.003 C 1471.666,875.936 1493.983,868.976 1512.107,875.374 C 1525.469,880.091 1532.994,887.694 1537.474,901.003 C 1538.863,905.130 1540,908.842 1540,909.253 C 1540,909.664 1521.086,910 1497.969,910 C 1464.758,910 1455.834,909.732 1455.446,908.721" stroke="#FEFEFE" fill="#FEFEFE" stroke-width="1" />
  <path id="167" d="M 2194.509,859.684 C 2194.509,859.684 2186.641,839 2186.641,839 C 2186.641,839 2161.321,839 2161.321,839 C 2147.395,839 2136,839.185 2136,839.411 C 2136,839.637 2137.585,843.527 2139.523,848.055 C 2141.461,852.583 2142.883,856.450 2142.684,856.649 C 2141.886,857.447 2134.805,839.949 2135.351,838.527 C 2135.855,837.215 2139.426,837 2160.778,837 C 2179.165,837 2186.017,837.325 2187.153,838.250 C 2187.997,838.938 2189.946,843.100 2191.485,847.500 C 2193.024,851.900 2194.669,855.927 2195.141,856.450 C 2195.613,856.972 2196,858.232 2196,859.248 C 2196,860.264 2197.203,862.211 2198.674,863.574 C 2200.629,865.386 2201.051,866.350 2200.241,867.159 C 2199.432,867.968 2199.664,869.611 2201.105,873.268 C 2202.189,876.019 2202.919,878.741 2202.727,879.318 C 2202.535,879.895 2198.837,871.060 2194.509,859.684" stroke="#E6F0F2" fill="#E6F0F2" stroke-width="1" />
  <path id="162" d="M 1965.999,812.498 C 1963.566,808.561 1960.243,807.264 1957.015,808.992 C 1953.791,810.717 1952.389,809.698 1949.454,803.494 C 1947.468,799.295 1946.959,797.030 1947.435,794.495 C 1947.954,791.728 1947.698,790.909 1946.035,790.019 C 1940.922,787.282 1945.733,773.485 1954.155,766.734 C 1957.458,764.086 1958.615,763.780 1966.155,763.556 C 1977.993,763.204 1981.456,764.371 1986.133,770.288 C 1988.260,772.978 1990.037,775.477 1990.083,775.840 C 1990.219,776.922 1990.862,780.056 1992.658,788.406 C 1994.251,795.812 1994.252,796.496 1992.679,799.237 C 1991.756,800.846 1991,803.499 1991,805.132 C 1991,807.576 1990.386,808.359 1987.532,809.551 C 1985.625,810.348 1982.680,811 1980.987,811 C 1979.038,811 1976.993,811.916 1975.409,813.500 C 1971.816,817.093 1968.629,816.753 1965.999,812.498" stroke="#102F45" fill="#102F45" stroke-width="1" />
  </g><g id="abstract icon"><path id="165" d="M 984.906,1074.966 C 966.036,1072.760 945.683,1063.998 930.272,1051.444 C 919.629,1042.774 913.673,1043.175 905.500,1053.113 C 895.933,1064.745 894.731,1066.064 894.188,1065.521 C 893.888,1065.221 894.516,1063.744 895.585,1062.238 C 896.654,1060.732 898.182,1058.225 898.979,1056.666 C 899.776,1055.107 901.651,1052.961 903.144,1051.898 C 904.637,1050.835 906.806,1048.431 907.964,1046.557 C 909.684,1043.774 911.009,1042.949 915.197,1042.051 C 918.955,1041.245 921.232,1041.252 923.727,1042.075 C 929.671,1044.037 936.914,1041.314 933.864,1038.264 C 933.325,1037.725 932.613,1034.633 932.281,1031.392 C 931.949,1028.151 931.148,1025.050 930.502,1024.500 C 929.856,1023.950 928.805,1021.700 928.167,1019.500 C 926.392,1013.382 925.707,1012.793 920.021,1012.486 C 913.661,1012.143 912.499,1011.193 914.111,1007.656 C 915.119,1005.444 915.044,1004.706 913.659,1003.175 C 912.612,1002.019 912,999.619 912,996.671 C 912,992.055 911.961,992 908.707,992 C 906.052,992 904.501,991.033 900.707,987.013 C 898.118,984.270 896,981.708 896,981.318 C 896,980.928 894.791,979.348 893.313,972.195 C 896.621,968.742 896.638,968.355 893.500,967.755 C 892.125,967.492 891,967.670 891,968.151 C 891,968.632 888.525,970.608 885.500,972.543 C 882.475,974.478 880,976.522 880,977.086 C 880,977.650 877.282,980.778 873.960,984.039 C 869.065,988.843 866.838,990.261 862.210,991.514 C 859.069,992.365 854.362,993.908 851.750,994.944 C 849.138,995.980 847,996.456 847,996.001 C 847,995.162 858.203,990.640 863.269,989.433 C 865.971,988.789 869.572,985.095 878.236,974.077 C 883.857,966.929 889.457,964.065 897.884,964.028 C 911.281,963.969 911.264,963.956 944.645,1000.576 C 970.846,1029.319 977.564,1033.891 991.848,1032.700 C 1004.224,1031.668 1009.907,1028.466 1013.117,1020.717 C 1014.253,1017.975 1013.925,1016.959 1008.552,1006.559 C 1008.552,1006.559 1002.763,995.354 1002.763,995.354 C 1002.763,995.354 1002.882,984.128 1002.882,984.128 C 1002.971,975.699 1002.610,972.146 1001.431,969.867 C 1001.431,969.867 999.862,966.832 999.862,966.832 C 999.862,966.832 991.585,967.521 991.585,967.521 C 985.088,968.062 982.684,967.883 980.404,966.688 C 974.901,963.802 918.652,905.675 914.490,898.572 C 911.428,893.346 912.207,889.467 916.967,886.250 C 923.880,881.578 924.113,881.727 949.451,906.887 C 962.128,919.475 973.483,930.275 974.684,930.887 C 977.847,932.499 980.560,932.265 985.006,929.997 C 989.415,927.748 991.001,925.449 990.996,921.316 C 990.989,916.177 984.804,908.767 981.979,910.513 C 980.568,911.385 980.830,914.191 982.532,916.441 C 984.793,919.430 984.402,924.604 981.777,926.443 C 980.555,927.299 978.802,928 977.883,928 C 975.758,928 979.311,931.527 923.683,874.184 C 906.991,856.977 904.026,852.263 904.010,842.899 C 904.003,838.755 904.682,836.024 906.621,832.399 C 909.151,827.670 909.224,827.067 908.719,815 C 908.431,808.125 907.879,801.713 907.491,800.750 C 906.109,797.319 902.245,798.827 893.840,806.078 C 871.704,825.175 863.909,840.116 866.836,857.839 C 868.924,870.481 873.253,877.963 890.243,898.289 C 904.530,915.381 907.588,922.257 905.004,931.487 C 901.556,943.803 887.074,950.653 876.210,945.106 C 869.931,941.900 858.625,930.047 847.169,914.660 C 829.210,890.539 821.732,864.393 825.481,838.831 C 827.056,828.093 831.460,813.930 836.033,804.904 C 839.967,797.139 850.381,785.037 872.309,762.750 C 893.944,740.760 898.157,737.572 897.230,743.888 C 896.956,745.753 895.247,748.103 892.403,750.528 C 887.539,754.674 886.816,757.618 889.963,760.466 C 892.416,762.686 894.717,761.873 896.073,758.308 C 897.969,753.322 898.456,753.143 905.508,754.830 C 909.079,755.684 912,756.727 912,757.147 C 912,759.794 926.411,777 928.627,777 C 929.354,777 930.612,778.284 931.423,779.852 C 932.234,781.420 934.028,783.443 935.408,784.347 C 936.898,785.323 938.412,787.720 939.134,790.246 C 939.803,792.586 940.749,795.028 941.235,795.674 C 941.721,796.320 941.820,798.445 941.454,800.396 C 940.862,803.550 941.301,804.625 945.403,810.082 C 951.173,817.757 951.887,820.309 949.261,823.861 C 948.163,825.346 946.257,828.537 945.025,830.951 C 941.489,837.881 942.821,840.535 956.742,854.318 C 963.209,860.721 971.425,869.147 975,873.044 C 983.491,882.299 1005.339,902.058 1015.625,909.785 C 1024.231,916.249 1032.199,924.763 1033.947,929.361 C 1035.820,934.287 1035.165,940.152 1032.043,946.422 C 1030.421,949.679 1029.387,952.829 1029.745,953.422 C 1030.103,954.015 1031.881,956.577 1033.695,959.115 C 1038.864,966.346 1040.201,971.239 1039.430,980.099 C 1037.956,997.030 1044.740,996.041 1062.226,976.773 C 1071.830,966.190 1074.926,960.268 1075.704,950.987 C 1076.026,947.144 1076.666,944 1077.126,944 C 1078.250,944 1079.354,948.633 1078.661,950.440 C 1078.356,951.235 1078.461,953.149 1078.894,954.693 C 1079.327,956.237 1079.288,958.850 1078.807,960.500 C 1077.100,966.360 1077.640,972.290 1080.059,974.249 C 1082.192,975.976 1082.368,975.978 1084.255,974.276 C 1085.998,972.704 1086.150,971.675 1085.578,965.330 C 1084.936,958.212 1085.914,955.238 1087.793,958.595 C 1088.481,959.823 1090.424,960.288 1095.585,960.458 C 1095.585,960.458 1102.461,960.685 1102.461,960.685 C 1102.461,960.685 1103.831,967.568 1103.831,967.568 C 1104.752,972.195 1104.879,974.965 1104.218,976.023 C 1103.557,977.081 1103.624,978.548 1104.421,980.498 C 1104.740,988.464 1108.657,977.516 1109.220,980.159 C 1111.039,985.616 1097.644,1006.710 1083.602,1020.500 C 1079.682,1024.350 1070.697,1033.697 1063.635,1041.272 C 1049.384,1056.559 1042.208,1062.205 1029.842,1067.858 C 1013.903,1075.145 1002.230,1076.991 984.906,1074.966" stroke="#F06B68" fill="#F06B68" stroke-width="1" />
  <path id="14" d="M 1038.500,832.103 C 1033.326,830.766 1027.226,827.150 1023.080,822.962 C 1016.259,816.072 992.712,790.307 982.431,778.481 C 975.262,770.235 974.452,768.486 976.414,765.491 C 977.688,763.546 977.690,763.002 975.078,755.218 C 973.222,754.525 973.242,754.322 975.657,749.246 C 977.426,745.528 977.969,743.136 977.514,741.065 C 976.748,737.576 975.705,736.649 970.750,735.053 C 966.529,733.694 966.079,732.592 969,730.768 C 971.947,728.928 971.447,727.291 967.501,725.864 C 962.717,724.134 964.276,723.114 972.010,722.912 C 977.098,722.779 979.905,723.335 985,725.482 C 993.878,729.223 1003.598,735.007 1009,739.763 C 1018.107,747.781 1020.625,749 1028.082,749 C 1028.082,749 1034.885,749 1034.885,749 C 1034.885,749 1039.683,743.250 1039.683,743.250 C 1053.078,727.198 1060.190,722.516 1073.685,720.865 C 1083.469,719.668 1087.750,720.456 1097.332,725.215 C 1105.032,729.039 1110.721,734.934 1114.980,743.500 C 1118.211,749.999 1118.486,751.292 1118.812,761.569 C 1119.130,771.572 1118.919,773.239 1116.630,778.873 C 1113.751,785.958 1107.351,794.125 1102.075,797.447 C 1100.109,798.685 1094.900,801.002 1090.500,802.595 C 1082.838,805.370 1082.014,805.988 1071,817.231 C 1064.375,823.994 1058.016,829.572 1056,830.388 C 1051.513,832.205 1042.363,833.101 1038.500,832.103M 1003.406,790.718 C 1004.150,789.538 1004.124,788.724 1003.315,787.915 C 1001.691,786.291 1000,787.682 1000,790.642 C 1000,793.399 1001.691,793.437 1003.406,790.718M 997.719,781.357 C 998.263,779.702 991.457,772.599 990.120,773.426 C 988.503,774.425 988.725,775.819 991.115,779.686 C 993.222,783.095 996.846,784.012 997.719,781.357" stroke="#FB9C0A" fill="#FB9C0A" stroke-width="1" />
  <path id="2" d="M 859.712,1075.885 C 846.716,1073.324 833.616,1063.221 828.495,1051.811 C 821.665,1036.592 825.341,1016.264 837.261,1003.333 C 840.889,999.397 845.500,996.058 847,996.282 C 847.275,996.323 849.525,995.625 852,994.732 C 854.475,993.839 859.069,992.402 862.210,991.538 C 866.816,990.271 869.088,988.821 873.960,984.039 C 877.282,980.778 880,977.650 880,977.086 C 880,976.522 882.475,974.478 885.500,972.543 C 888.525,970.608 891,968.632 891,968.151 C 891,967.670 892.125,967.492 893.500,967.755 C 896.638,968.355 896.621,968.742 893.313,977.805 C 894.791,979.348 896,980.928 896,981.318 C 896,981.708 898.118,984.270 900.707,987.013 C 904.501,991.033 906.052,992 908.707,992 C 911.961,992 912,992.055 912,996.671 C 912,999.619 912.612,1002.019 913.659,1003.175 C 915.044,1004.706 915.119,1005.444 914.111,1007.656 C 912.499,1011.193 913.661,1012.143 920.021,1012.486 C 925.707,1012.793 926.392,1013.382 928.167,1019.500 C 928.805,1021.700 929.856,1023.950 930.502,1024.500 C 931.148,1025.050 931.949,1028.151 932.281,1031.392 C 932.613,1034.633 933.325,1037.725 933.864,1038.264 C 936.914,1041.314 929.671,1044.037 923.727,1042.075 C 921.232,1041.252 918.955,1041.245 915.197,1042.051 C 911.020,1042.947 909.682,1043.777 907.980,1046.532 C 906.831,1048.391 904.720,1050.766 903.288,1051.809 C 900.725,1053.676 897.341,1058.610 894.583,1064.500 C 890.690,1072.815 873.165,1078.536 859.712,1075.885" stroke="#CE57DD" fill="#CE57DD" stroke-width="1" />
  <path id="169" d="M 1108.031,986 C 1108.031,985.175 1108.432,983.866 1108.923,983.091 C 1111.521,983.399 1103.240,983.399 1104.421,980.498 C 1103.624,978.548 1103.557,977.081 1104.218,976.023 C 1104.879,974.965 1104.752,972.195 1103.831,967.568 C 1103.831,967.568 1102.461,960.685 1102.461,960.685 C 1102.461,960.685 1095.585,960.458 1095.585,960.458 C 1090.424,960.288 1088.481,959.823 1087.793,958.595 C 1085.914,955.238 1084.936,958.212 1085.578,965.330 C 1086.150,971.675 1085.998,972.704 1084.255,974.276 C 1082.368,975.978 1082.192,975.976 1080.059,974.249 C 1077.639,972.289 1077.086,966.343 1078.782,960.500 C 1079.261,958.850 1079.350,956.375 1078.980,955 C 1078.610,953.625 1078.479,951.150 1078.690,949.500 C 1079.154,945.864 1077.472,942.769 1076.147,944.821 C 1075.597,945.672 1075.082,944.088 1074.698,940.367 C 1073.695,930.648 1065.899,917.150 1051.855,900.817 C 1038.191,884.926 1033.990,877.616 1034.022,869.790 C 1034.074,857.278 1042.515,849.014 1055.401,848.860 C 1062.548,848.775 1067.571,851.519 1074.154,859.102 C 1077.094,862.489 1081.560,867.564 1084.078,870.380 C 1093.671,881.109 1098.879,888.052 1103.841,896.722 C 1114.455,915.270 1117.504,927.952 1116.754,950.436 C 1116.307,963.825 1115.904,966.557 1113.128,975 C 1109.881,984.877 1108.031,988.869 1108.031,986" stroke="#FF7F35" fill="#FF7F35" stroke-width="1" />
  <path id="4" d="M 855,1078.109 C 847.455,1075.513 842.558,1072.783 836.924,1068.033 C 834.293,1065.815 831.653,1064 831.056,1064 C 829.503,1064 826.008,1057.921 820.511,1053.500 C 820.511,1053.500 820.608,1042 820.608,1042 C 820.722,1028.359 821.727,1020.063 823.516,1018 C 824.231,1017.175 826.065,1013.850 827.591,1010.612 C 831.411,1002.504 838.606,995.849 849.386,990.450 C 854.273,988.003 858.937,986 859.750,986 C 863.466,986 869.273,981.392 871.717,976.506 C 873.094,973.753 875.183,970.443 876.360,969.151 C 883.707,961.085 902.647,958.147 912.949,963.474 C 916.112,965.110 937,985.636 937,987.109 C 937,987.650 940.487,991.605 944.750,995.897 C 949.013,1000.189 954.235,1005.823 956.355,1008.417 C 958.475,1011.011 961.731,1013.858 963.590,1014.744 C 965.449,1015.630 968.060,1018.003 969.393,1020.017 C 973.416,1026.096 986.881,1031.396 992.767,1029.217 C 994.270,1028.660 998.043,1027.457 1001.151,1026.541 C 1006.822,1024.871 1009.639,1022.794 1010.028,1020 C 1010.643,1015.577 1009.711,1012.687 1006.537,1009.173 C 1000.297,1002.266 998.569,996.973 998.460,984.449 C 998.407,978.371 998.076,972.932 997.724,972.363 C 997.352,971.761 994.824,971.516 991.684,971.776 C 983.108,972.487 969.055,967.478 968.975,963.682 C 968.924,961.240 961.873,952.976 958.258,951.120 C 956.191,950.059 953.720,947.910 952.767,946.345 C 950.180,942.097 945.835,937.679 941.783,935.175 C 939.800,933.949 937.723,931.721 937.168,930.223 C 936.219,927.662 934.438,925.706 920.566,912.001 C 917.505,908.977 915,906.005 915,905.397 C 915,904.789 913.822,903.021 912.383,901.468 C 910.007,898.904 909.823,898.132 910.377,893.072 C 910.927,888.050 911.437,887.095 915.544,883.401 C 918.050,881.147 920.165,878.447 920.242,877.401 C 920.449,874.590 917.719,870.999 911.957,866.500 C 908.483,863.788 905.850,860.572 903.781,856.511 C 900.841,850.740 900.752,850.184 901.338,841.265 C 901.717,835.500 902.663,830.405 903.849,827.755 C 905.968,823.020 906.869,804.655 905.038,803.523 C 902.578,802.003 887.284,814.118 886.161,818.477 C 885.647,820.470 884.660,821.606 883.263,821.810 C 880.562,822.205 880.058,822.857 875.010,832.463 C 865.670,850.237 868.165,864.277 884.081,883.519 C 887.337,887.455 890,891.244 890,891.941 C 890,892.638 892.767,895.915 896.148,899.224 C 901.494,904.455 902.733,906.416 905.648,914.256 C 910.969,928.568 910.023,934.629 901.118,943.283 C 894.915,949.311 891.130,951 883.819,951 C 877.908,951 872.958,949.064 869.260,945.305 C 867.742,943.762 864.742,941.015 862.593,939.198 C 860.444,937.381 857.471,934.007 855.987,931.698 C 854.503,929.389 850.523,924.506 847.144,920.847 C 843.765,917.188 841,913.792 841,913.301 C 841,912.810 839.010,909.181 836.579,905.238 C 830.055,894.656 826.135,886.169 825.026,880.223 C 824.484,877.321 823.551,874.030 822.951,872.909 C 821.077,869.408 819.566,845.392 820.865,839.764 C 821.489,837.060 822,833.140 822,831.053 C 822,827.446 829.564,808.491 832.396,805 C 833.065,804.175 834.164,802.210 834.838,800.633 C 836.963,795.659 854.511,775.843 865.435,766.079 C 868.771,763.097 872.759,758.958 874.298,756.881 C 875.837,754.804 878.087,752.804 879.298,752.438 C 880.509,752.072 884.039,749.011 887.141,745.636 C 890.243,742.261 893.059,739.766 893.399,740.092 C 893.739,740.418 884.318,750.543 872.464,762.592 C 850.392,785.027 839.972,797.128 836.033,804.904 C 831.460,813.930 827.056,828.093 825.481,838.831 C 821.732,864.393 829.210,890.539 847.169,914.660 C 858.625,930.047 869.931,941.900 876.210,945.106 C 887.074,950.653 901.556,943.803 905.004,931.487 C 907.588,922.257 904.530,915.381 890.243,898.289 C 873.253,877.963 868.924,870.481 866.836,857.839 C 863.909,840.116 871.704,825.175 893.840,806.078 C 902.245,798.827 906.109,797.319 907.491,800.750 C 907.879,801.713 908.431,808.125 908.719,815 C 909.224,827.067 909.151,827.670 906.621,832.399 C 904.682,836.024 904.003,838.755 904.010,842.899 C 904.026,852.263 906.991,856.977 923.683,874.184 C 979.311,931.527 975.758,928 977.883,928 C 978.802,928 980.555,927.299 981.777,926.443 C 984.402,924.604 984.793,919.430 982.532,916.441 C 980.830,914.191 980.568,911.385 981.979,910.513 C 984.804,908.767 990.989,916.177 990.996,921.316 C 991.001,925.449 989.415,927.748 985.006,929.997 C 980.560,932.265 977.847,932.499 974.684,930.887 C 973.483,930.275 962.128,919.475 949.451,906.887 C 924.113,881.727 923.880,881.578 916.967,886.250 C 912.207,889.467 911.428,893.346 914.490,898.572 C 918.652,905.675 974.901,963.802 980.404,966.688 C 982.684,967.883 985.088,968.062 991.585,967.521 C 991.585,967.521 999.862,966.832 999.862,966.832 C 999.862,966.832 1001.431,969.867 1001.431,969.867 C 1002.610,972.146 1002.971,975.699 1002.882,984.128 C 1002.882,984.128 1002.763,995.354 1002.763,995.354 C 1002.763,995.354 1008.552,1006.559 1008.552,1006.559 C 1013.925,1016.959 1014.253,1017.975 1013.117,1020.717 C 1009.907,1028.466 1004.224,1031.668 991.848,1032.700 C 977.564,1033.891 970.846,1029.319 944.645,1000.576 C 911.264,963.956 911.281,963.969 897.884,964.028 C 889.457,964.065 883.857,966.929 878.236,974.077 C 867.660,987.526 866.702,988.356 858.875,990.843 C 840.944,996.540 831.542,1006.009 826.460,1023.491 C 824.007,1031.930 824.851,1043.692 828.495,1051.811 C 831.926,1059.456 841.601,1069.049 849.325,1072.465 C 860.777,1077.530 873.527,1077.772 884.250,1073.128 C 889.292,1070.944 897.212,1063.522 905.500,1053.212 C 913.619,1043.112 919.544,1042.704 930.345,1051.503 C 941.679,1060.736 957.504,1068.791 971.602,1072.501 C 974.846,1073.355 982.225,1074.559 988,1075.178 C 1003.236,1076.810 1015.148,1074.689 1030.447,1067.620 C 1042.239,1062.172 1049.598,1056.329 1063.635,1041.272 C 1070.697,1033.697 1079.682,1024.350 1083.602,1020.500 C 1090.865,1013.367 1100.585,1000.977 1105.509,992.575 C 1107.013,990.009 1108.460,988.126 1108.724,988.390 C 1109.481,989.147 1104.750,998.233 1102.159,1001 C 1100.872,1002.375 1098.963,1005.442 1097.917,1007.816 C 1096.684,1010.614 1091.693,1016.416 1083.723,1024.316 C 1076.963,1031.017 1069.270,1039.537 1066.628,1043.250 C 1063.986,1046.963 1061.394,1050 1060.868,1050 C 1060.342,1050 1055.930,1053.775 1051.062,1058.388 C 1045.504,1063.656 1040.776,1067.246 1038.355,1068.041 C 1036.235,1068.737 1032.922,1070.300 1030.993,1071.513 C 1029.064,1072.726 1022.763,1074.794 1016.992,1076.109 C 1007.705,1078.225 1004.408,1078.474 988.282,1078.274 C 988.282,1078.274 970.064,1078.047 970.064,1078.047 C 970.064,1078.047 958.047,1072.024 958.047,1072.024 C 951.438,1068.711 945.236,1065.993 944.265,1065.983 C 943.294,1065.974 941.375,1064.776 940,1063.322 C 938.625,1061.868 935.588,1059.829 933.250,1058.792 C 930.912,1057.755 929,1056.496 929,1055.995 C 929,1054.704 920.934,1050.137 917.408,1049.432 C 914.768,1048.904 913.922,1049.447 909.476,1054.526 C 901.736,1063.368 887.718,1077.060 885.483,1077.961 C 884.373,1078.408 878.298,1079.049 871.983,1079.387 C 862.242,1079.908 859.666,1079.714 855,1078.109" stroke="#F9F4FC" fill="#F9F4FC" stroke-width="1" />
  <path id="169" d="M 1000,790.642 C 1000,787.682 1001.691,786.291 1003.315,787.915 C 1004.124,788.724 1004.150,789.538 1003.406,790.718 C 1001.691,793.437 1000,793.399 1000,790.642" stroke="#FF7F35" fill="#FF7F35" stroke-width="1" />
  <path id="3" d="M 1003.240,896.674 C 1001.350,895.624 989.083,882.892 981.533,874.144 C 980.415,872.848 972.832,864.973 964.683,856.644 C 956.534,848.315 949.446,840.742 948.933,839.816 C 947.235,836.751 947.904,833.221 950.582,831.114 C 957.331,825.806 962.492,827.471 972.726,838.261 C 988.606,855.004 998.719,865.485 1006.611,873.383 C 1011.072,877.847 1015.489,882.997 1016.426,884.826 C 1018.030,887.955 1018.030,888.310 1016.433,890.826 C 1011.942,897.900 1008.330,899.501 1003.240,896.674" stroke="#F47B5C" fill="#F47B5C" stroke-width="1" />
  <path id="169" d="M 931.942,780.626 C 930.765,778.632 929.240,777 928.553,777 C 926.393,777 912,759.737 912,757.147 C 912,756.727 909.079,755.684 905.508,754.830 C 898.456,753.143 897.969,753.322 896.073,758.308 C 894.717,761.873 892.416,762.686 889.963,760.466 C 886.816,757.618 887.539,754.674 892.403,750.528 C 897.384,746.282 899.214,741 895.704,741 C 892.170,741 895.889,737.878 909.125,729.733 C 921.798,721.934 944.683,717.810 962.918,720.038 C 974.995,721.514 978.632,722.850 970.809,722.937 C 964.056,723.012 962.787,724.160 967.553,725.883 C 971.449,727.292 971.936,728.934 969,730.768 C 966.079,732.592 966.529,733.694 970.750,735.053 C 975.705,736.649 976.748,737.576 977.514,741.065 C 977.969,743.136 977.426,745.528 975.657,749.246 C 973.242,754.322 973.222,754.525 976.426,761.198 C 977.690,763.002 977.688,763.546 976.414,765.491 C 975.611,766.716 975.230,768.435 975.566,769.311 C 976.001,770.446 974.498,769.983 970.338,767.702 C 964.758,764.642 964.013,764.501 953.500,764.521 C 944.017,764.539 941.909,764.855 938.210,766.812 C 935.721,768.129 933.499,770.187 932.918,771.715 C 931.858,774.504 932.543,779.646 934.258,781.774 C 934.823,782.475 935.014,783.319 934.683,783.650 C 934.352,783.981 933.119,782.620 931.942,780.626" stroke="#FF7F35" fill="#FF7F35" stroke-width="1" />
  <path id="169" d="M 942.063,805.619 C 941.279,804.155 941.056,802.020 941.483,800.078 C 941.865,798.340 941.749,796.374 941.226,795.709 C 940.063,794.230 938.743,789 939.532,789 C 940.730,789 942.883,795.844 943.556,801.793 C 943.942,805.207 944.051,808 943.798,808 C 943.545,808 942.764,806.929 942.063,805.619" stroke="#FF7F35" fill="#FF7F35" stroke-width="1" />
  <path id="4" d="M 1113.011,975.872 C 1113.017,975.667 1113.692,973.291 1114.511,970.591 C 1115.330,967.891 1116,964.430 1116,962.900 C 1116,961.370 1116.390,959.877 1116.866,959.583 C 1117.693,959.072 1117.509,963.894 1116.444,970.650 C 1116.171,972.382 1115.284,974.349 1114.474,975.022 C 1113.664,975.695 1113.005,976.077 1113.011,975.872" stroke="#F9F4FC" fill="#F9F4FC" stroke-width="1" />
  <path id="3" d="M 985.453,883.878 C 983.279,881.611 982.400,880.222 983.500,880.792 C 986.068,882.123 991.686,888 990.390,888 C 989.849,888 987.627,886.145 985.453,883.878" stroke="#F47B5C" fill="#F47B5C" stroke-width="1" />
  <path id="169" d="M 991.115,779.686 C 988.725,775.819 988.503,774.425 990.120,773.426 C 991.457,772.599 998.263,779.702 997.719,781.357 C 996.846,784.012 993.222,783.095 991.115,779.686" stroke="#FF7F35" fill="#FF7F35" stroke-width="1" />
  </g></svg>